<?xml version="1.0" encoding="utf-8"?>
<!-- Generator: Adobe Illustrator 16.0.0, SVG Export Plug-In . SVG Version: 6.00 Build 0)  -->
<!DOCTYPE svg PUBLIC "-//W3C//DTD SVG 1.1//EN" "http://www.w3.org/Graphics/SVG/1.1/DTD/svg11.dtd">
<svg version="1.1" id="Layer_1" xmlns="http://www.w3.org/2000/svg" xmlns:xlink="http://www.w3.org/1999/xlink" x="0px" y="0px"
	 width="107px" height="107px" viewBox="6.5 6.5 107 107" enable-background="new 6.5 6.5 107 107" xml:space="preserve">
<linearGradient id="SVGID_1_" gradientUnits="userSpaceOnUse" x1="306.0684" y1="-252.8662" x2="306.0684" y2="-309.4366" gradientTransform="matrix(1 0 0 -1 -252.5 -222.5)">
	<stop  offset="0" style="stop-color:#CFCFCF"/>
	<stop  offset="1" style="stop-color:#9A9999"/>
</linearGradient>
<path fill="url(#SVGID_1_)" d="M87.033,36.204c-5.764-8.453-17.289-10.632-25.742-4.869c-5.358,3.654-8.191,9.625-8.083,15.66
	l-4.346,2.964l1.822,2.671L18.27,74.734l-1.386,9.306l9.299,1.729l6.2-4.229l1.134-5.991l6.325,1.196l1.238-6.547l6.159,1.163
	l0.131-0.088l1.175-6.215l6.214,1.176l3.552-2.424l1.979,2.903l4.347-2.964c5.578,2.307,12.17,1.85,17.53-1.805
	C90.618,56.183,92.797,44.657,87.033,36.204z M73.279,45.584c-1.555-2.277-0.967-5.382,1.311-6.935
	c2.278-1.553,5.383-0.966,6.936,1.311c1.554,2.277,0.966,5.382-1.312,6.935C77.938,48.449,74.831,47.861,73.279,45.584z"/>
<linearGradient id="SVGID_2_" gradientUnits="userSpaceOnUse" x1="322.0781" y1="-257.54" x2="322.0781" y2="-327.827" gradientTransform="matrix(1 0 0 -1 -252.5 -222.5)">
	<stop  offset="0" style="stop-color:#77BE82"/>
	<stop  offset="1" style="stop-color:#549963"/>
</linearGradient>
<path fill="url(#SVGID_2_)" d="M85.396,34.052c-9.117-4.64-20.271-1.009-24.911,8.11c-2.942,5.781-2.555,12.379,0.442,17.617
	l-2.386,4.689l2.882,1.466l-17.792,34.969l3.259,8.824l8.984-2.955l3.403-6.688l-1.887-5.799l6.121-1.992l-2.062-6.336l5.959-1.94
	l0.071-0.142l-1.957-6.015l6.013-1.957l1.948-3.83l3.134,1.593l2.385-4.688c6-0.66,11.562-4.23,14.503-10.013
	C98.146,49.846,94.516,38.692,85.396,34.052z M77.848,48.891c-2.457-1.25-3.435-4.254-2.185-6.711s4.254-3.435,6.711-2.185
	s3.435,4.255,2.185,6.711S80.305,50.141,77.848,48.891z"/>
<linearGradient id="SVGID_3_" gradientUnits="userSpaceOnUse" x1="349.627" y1="-232.6494" x2="329.8795" y2="-262.0953" gradientTransform="matrix(1 0 0 -1 -252.5 -222.5)">
	<stop  offset="0" style="stop-color:#777778"/>
	<stop  offset="1" style="stop-color:#454545"/>
</linearGradient>
<path fill="url(#SVGID_3_)" d="M70.248,28.172c0.445-3.322,1.757-6.662,3.828-9.668c3.895-5.656,9.865-9.168,15.584-9.168
	c2.54,0,4.927,0.718,6.896,2.076c3.223,2.219,5.129,5.914,5.363,10.403c0.23,4.408-1.179,9.071-3.973,13.128
	c-3.895,5.655-9.865,9.168-15.584,9.168c0,0,0,0-0.002,0c-2.455,0-4.959-0.783-6.696-1.942c0.231-0.487,0.522-0.939,0.995-1.334
	c1.472,0.979,3.576,1.614,5.701,1.615c0.002,0,0.002,0,0.002,0c5.181,0,10.627-3.237,14.216-8.449
	c2.588-3.758,3.896-8.054,3.683-12.099c-0.21-3.963-1.859-7.203-4.646-9.123c-1.717-1.183-3.723-1.782-5.955-1.782
	c-5.18,0-10.628,3.237-14.217,8.448c-1.863,2.708-3.053,5.699-3.51,8.67C71.297,28.098,70.863,28.113,70.248,28.172z"/>
<path fill="#676767" d="M75.668,42.17"/>
</svg>
