<?xml version="1.0" encoding="utf-8"?>
<!-- Generator: Adobe Illustrator 16.0.0, SVG Export Plug-In . SVG Version: 6.00 Build 0)  -->
<!DOCTYPE svg PUBLIC "-//W3C//DTD SVG 1.1//EN" "http://www.w3.org/Graphics/SVG/1.1/DTD/svg11.dtd">
<svg version="1.1" id="Layer_1" xmlns="http://www.w3.org/2000/svg" xmlns:xlink="http://www.w3.org/1999/xlink" x="0px" y="0px"
	 width="107px" height="107px" viewBox="0 0 107 107" enable-background="new 0 0 107 107" xml:space="preserve">
<linearGradient id="SVGID_1_" gradientUnits="userSpaceOnUse" x1="40.9985" y1="46.0776" x2="40.9985" y2="105.5285">
	<stop  offset="0" style="stop-color:#CFCFCF"/>
	<stop  offset="1" style="stop-color:#9A9999"/>
</linearGradient>
<polygon fill="url(#SVGID_1_)" points="81.998,20.866 0,20.866 0,75.188 12.53,75.188 9.604,87.793 29.624,75.188 81.998,75.188 "/>
<g opacity="0.75">
	<path fill="#FFFFFF" d="M42.725,47.897h1.663c0.753,0,1.286,0.144,1.596,0.432c0.311,0.288,0.464,0.809,0.464,1.562v3.991
		c-0.042,3.413-0.818,6.606-2.327,9.575l-2.66-0.73c0.443-2.395,0.665-4.878,0.665-7.447c-1.107,0-1.619-0.578-1.53-1.729v-3.659
		C40.642,48.562,41.352,47.897,42.725,47.897z M32.618,47.897h1.595c0.755,0,1.287,0.144,1.597,0.432
		c0.31,0.288,0.465,0.809,0.465,1.562v3.991c-0.044,3.501-0.799,6.693-2.262,9.575l-2.726-0.73c0.444-2.395,0.665-4.878,0.665-7.447
		c-1.107,0-1.618-0.578-1.529-1.729v-3.659C30.468,48.562,31.199,47.897,32.618,47.897z"/>
</g>
<g opacity="0.75">
	<path fill="#FFFFFF" d="M12.579,42.796h-1.663c-0.754,0-1.287-0.143-1.596-0.432c-0.311-0.288-0.464-0.809-0.464-1.563v-3.99
		c0.042-3.413,0.819-6.605,2.327-9.576l2.66,0.732c-0.444,2.393-0.666,4.877-0.666,7.448c1.108,0,1.618,0.576,1.53,1.729v3.657
		C14.662,42.131,13.952,42.796,12.579,42.796z M22.686,42.796H21.09c-0.754,0-1.286-0.143-1.596-0.432
		c-0.31-0.288-0.465-0.809-0.465-1.563v-3.99c0.044-3.501,0.798-6.693,2.261-9.576l2.727,0.732
		c-0.444,2.393-0.665,4.877-0.665,7.448c1.108,0,1.618,0.576,1.53,1.729v3.657C24.835,42.131,24.104,42.796,22.686,42.796z"/>
</g>
<linearGradient id="SVGID_2_" gradientUnits="userSpaceOnUse" x1="71.0156" y1="40.186" x2="71.0156" y2="87.4155">
	<stop  offset="0" style="stop-color:#77BE82"/>
	<stop  offset="1" style="stop-color:#549963"/>
</linearGradient>
<polygon fill="url(#SVGID_2_)" points="106.801,30.901 35.231,30.901 35.231,78.324 81.702,78.324 97.847,90.595 94.719,78.324 
	106.801,78.324 "/>
<g opacity="0.9">
	<path fill="#FFFFFF" d="M81.725,65.299c0,0.988-0.8,1.786-1.783,1.786h-17.85c-0.984,0-1.784-0.798-1.784-1.786V54.596
		c0-0.988,0.8-1.787,1.784-1.787h0.597v-3.57c0-4.572,3.756-8.329,8.328-8.329c4.571,0,8.328,3.757,8.328,8.329v3.57h0.597
		c0.983,0,1.783,0.799,1.783,1.787V65.299z M75.776,52.809v-3.57c0-2.621-2.139-4.759-4.76-4.759s-4.76,2.139-4.76,4.759v3.57
		H75.776z"/>
</g>
</svg>
