<?xml version="1.0" encoding="utf-8"?>
<!-- Generator: Adobe Illustrator 16.0.0, SVG Export Plug-In . SVG Version: 6.00 Build 0)  -->
<!DOCTYPE svg PUBLIC "-//W3C//DTD SVG 1.1//EN" "http://www.w3.org/Graphics/SVG/1.1/DTD/svg11.dtd">
<svg version="1.1" id="Layer_1" xmlns="http://www.w3.org/2000/svg" xmlns:xlink="http://www.w3.org/1999/xlink" x="0px" y="0px"
	 width="107px" height="107px" viewBox="0 0 107 107" enable-background="new 0 0 107 107" xml:space="preserve">
<linearGradient id="SVGID_1_" gradientUnits="userSpaceOnUse" x1="40.9985" y1="46.0776" x2="40.9985" y2="105.5285">
	<stop  offset="0" style="stop-color:#CFCFCF"/>
	<stop  offset="1" style="stop-color:#9A9999"/>
</linearGradient>
<polygon fill="url(#SVGID_1_)" points="81.998,20.866 0,20.866 0,75.188 12.53,75.188 9.604,87.793 29.624,75.188 81.998,75.188 "/>
<g opacity="0.75">
	<path fill="#FFFFFF" d="M42.725,47.897h1.663c0.753,0,1.286,0.144,1.596,0.432c0.311,0.288,0.464,0.809,0.464,1.562v3.991
		c-0.042,3.413-0.818,6.606-2.327,9.575l-2.66-0.73c0.443-2.395,0.665-4.878,0.665-7.447c-1.107,0-1.619-0.578-1.53-1.729v-3.659
		C40.642,48.562,41.352,47.897,42.725,47.897z M32.618,47.897h1.595c0.755,0,1.287,0.144,1.597,0.432
		c0.31,0.288,0.465,0.809,0.465,1.562v3.991c-0.044,3.501-0.799,6.693-2.262,9.575l-2.726-0.73c0.444-2.395,0.665-4.878,0.665-7.447
		c-1.107,0-1.618-0.578-1.529-1.729v-3.659C30.468,48.562,31.199,47.897,32.618,47.897z"/>
</g>
<g opacity="0.75">
	<path fill="#FFFFFF" d="M12.579,42.796h-1.663c-0.754,0-1.287-0.143-1.596-0.432c-0.311-0.288-0.464-0.809-0.464-1.563v-3.99
		c0.042-3.413,0.819-6.605,2.327-9.576l2.66,0.732c-0.444,2.393-0.666,4.877-0.666,7.448c1.108,0,1.618,0.576,1.53,1.729v3.657
		C14.662,42.131,13.952,42.796,12.579,42.796z M22.686,42.796H21.09c-0.754,0-1.286-0.143-1.596-0.432
		c-0.31-0.288-0.465-0.809-0.465-1.563v-3.99c0.044-3.501,0.798-6.693,2.261-9.576l2.727,0.732
		c-0.444,2.393-0.665,4.877-0.665,7.448c1.108,0,1.618,0.576,1.53,1.729v3.657C24.835,42.131,24.104,42.796,22.686,42.796z"/>
</g>
<linearGradient id="SVGID_2_" gradientUnits="userSpaceOnUse" x1="71.0156" y1="40.186" x2="71.0156" y2="87.4155">
	<stop  offset="0" style="stop-color:#77BE82"/>
	<stop  offset="1" style="stop-color:#549963"/>
</linearGradient>
<polygon fill="url(#SVGID_2_)" points="106.801,30.901 35.231,30.901 35.231,78.324 81.702,78.324 97.847,90.595 94.719,78.324 
	106.801,78.324 "/>
<g>
	<g>
		<path fill="#FFFFFF" d="M59.912,35.916h1.73v1.712h1.584v-1.712h1.732v5.181h-1.732v-1.735h-1.584v1.735h-1.73V35.916z"/>
		<path fill="#FFFFFF" d="M67.235,37.635h-1.523v-1.719h4.778v1.719h-1.523v3.462h-1.731V37.635L67.235,37.635z"/>
		<path fill="#FFFFFF" d="M71.25,35.916h1.806l1.109,1.821l1.11-1.821h1.806v5.181h-1.724V38.53l-1.192,1.84h-0.03l-1.19-1.84v2.567
			H71.25V35.916z"/>
		<path fill="#FFFFFF" d="M77.942,35.916h1.732v3.469h2.435v1.712h-4.167V35.916z"/>
	</g>
	<path fill="#FFFFFF" d="M66.519,55.941h4.497v-3.488h-4.81L66.519,55.941z M57.416,43.369l2.479,27.776l11.114,3.086l11.127-3.085
		l2.48-27.777H57.416z M80.015,69.377l-8.999,2.495v-3.535l-0.006,0.002l-6.977-1.939l-0.488-5.469h3.419l0.252,2.838l3.796,1.025
		l0.004-0.002V59.35h-7.612l-0.92-10.304h8.532V45.64h11.116L80.015,69.377z"/>
	<path opacity="0.8" fill="#FFFFFF" enable-background="new    " d="M75.207,59.35h-4.191v5.442l3.798-1.025L75.207,59.35z
		 M71.016,45.64v3.405h8.532l-0.306,3.408h-8.227v3.488h7.917l-0.936,10.458l-6.981,1.938v3.535l8.999-2.495l2.117-23.737H71.016
		L71.016,45.64z"/>
	<g opacity="0.2">
		<polygon fill="#FFFFFF" points="71.016,49.045 62.483,49.045 63.403,59.35 71.016,59.35 71.016,55.941 66.519,55.941 
			66.206,52.454 71.016,52.454 		"/>
		<polygon fill="#FFFFFF" points="71.016,64.792 71.012,64.794 67.216,63.769 66.964,60.931 63.545,60.931 64.033,66.399 
			71.01,68.339 71.016,68.337 		"/>
	</g>
</g>
</svg>
