<?xml version="1.0" encoding="utf-8"?>
<!-- Generator: Adobe Illustrator 16.0.0, SVG Export Plug-In . SVG Version: 6.00 Build 0)  -->
<!DOCTYPE svg PUBLIC "-//W3C//DTD SVG 1.1//EN" "http://www.w3.org/Graphics/SVG/1.1/DTD/svg11.dtd">
<svg version="1.1" id="Layer_1" xmlns="http://www.w3.org/2000/svg" xmlns:xlink="http://www.w3.org/1999/xlink" x="0px" y="0px"
	 width="107px" height="107px" viewBox="0 0 107 107" enable-background="new 0 0 107 107" xml:space="preserve">
<linearGradient id="SVGID_1_" gradientUnits="userSpaceOnUse" x1="-203.0005" y1="155.9229" x2="-203.0005" y2="96.4719" gradientTransform="matrix(1 0 0 -1 244 202)">
	<stop  offset="0" style="stop-color:#CFCFCF"/>
	<stop  offset="1" style="stop-color:#9A9999"/>
</linearGradient>
<polygon fill="url(#SVGID_1_)" points="81.998,20.866 0,20.866 0,75.188 12.53,75.188 9.604,87.793 29.624,75.188 81.998,75.188 "/>
<g opacity="0.75">
	<path fill="#FFFFFF" d="M42.725,47.897h1.663c0.753,0,1.286,0.144,1.596,0.432c0.311,0.288,0.464,0.809,0.464,1.562v3.991
		c-0.042,3.413-0.818,6.606-2.327,9.575l-2.66-0.73c0.443-2.395,0.665-4.877,0.665-7.446c-1.107,0-1.619-0.578-1.53-1.729v-3.659
		C40.642,48.562,41.352,47.897,42.725,47.897z M32.618,47.897h1.595c0.755,0,1.287,0.144,1.597,0.432s0.465,0.809,0.465,1.562v3.991
		c-0.044,3.501-0.799,6.693-2.262,9.575l-2.726-0.73c0.444-2.395,0.665-4.877,0.665-7.446c-1.107,0-1.618-0.578-1.529-1.729v-3.659
		C30.468,48.562,31.199,47.897,32.618,47.897z"/>
</g>
<g opacity="0.75">
	<path fill="#FFFFFF" d="M12.579,42.796h-1.663c-0.754,0-1.287-0.143-1.596-0.432c-0.311-0.288-0.464-0.809-0.464-1.563v-3.99
		c0.042-3.413,0.819-6.605,2.327-9.576l2.66,0.732c-0.444,2.393-0.666,4.877-0.666,7.448c1.108,0,1.618,0.576,1.53,1.729v3.657
		C14.662,42.131,13.952,42.796,12.579,42.796z M22.686,42.796H21.09c-0.754,0-1.286-0.143-1.596-0.432
		c-0.31-0.288-0.465-0.809-0.465-1.563v-3.99c0.044-3.501,0.798-6.693,2.261-9.576l2.727,0.732
		c-0.444,2.393-0.665,4.877-0.665,7.448c1.108,0,1.618,0.576,1.53,1.729v3.657C24.835,42.131,24.104,42.796,22.686,42.796z"/>
</g>
<linearGradient id="SVGID_2_" gradientUnits="userSpaceOnUse" x1="-172.9839" y1="161.8145" x2="-172.9839" y2="114.5842" gradientTransform="matrix(1 0 0 -1 244 202)">
	<stop  offset="0" style="stop-color:#77BE82"/>
	<stop  offset="1" style="stop-color:#549963"/>
</linearGradient>
<polygon fill="url(#SVGID_2_)" points="106.801,30.901 35.231,30.901 35.231,78.324 81.702,78.324 97.848,90.595 94.719,78.324 
	106.801,78.324 "/>
<g>
	<path fill-rule="evenodd" clip-rule="evenodd" fill="#FFFFFF" d="M83.335,60.027c-0.673,1.492-0.996,2.159-1.863,3.478
		c-1.209,1.841-2.914,4.133-5.027,4.153c-1.877,0.017-2.358-1.223-4.907-1.207c-2.548,0.014-3.079,1.229-4.955,1.211
		c-2.114-0.02-3.73-2.09-4.939-3.931c-3.384-5.147-3.738-11.19-1.65-14.402c1.482-2.283,3.821-3.619,6.021-3.619
		c2.24,0,3.647,1.228,5.499,1.228c1.796,0,2.89-1.229,5.479-1.229c1.956,0,4.03,1.065,5.508,2.907
		C77.657,51.269,78.443,58.18,83.335,60.027L83.335,60.027z"/>
	<path fill-rule="evenodd" clip-rule="evenodd" fill="#FFFFFF" d="M75.025,43.652c0.941-1.207,1.655-2.912,1.397-4.654
		c-1.537,0.106-3.333,1.084-4.385,2.358c-0.95,1.156-1.738,2.872-1.432,4.54C72.284,45.947,74.021,44.945,75.025,43.652
		L75.025,43.652z"/>
</g>
</svg>
