<?xml version="1.0" encoding="utf-8"?>
<!-- Generator: Adobe Illustrator 16.0.0, SVG Export Plug-In . SVG Version: 6.00 Build 0)  -->
<!DOCTYPE svg PUBLIC "-//W3C//DTD SVG 1.1//EN" "http://www.w3.org/Graphics/SVG/1.1/DTD/svg11.dtd">
<svg version="1.1" id="Layer_1" xmlns="http://www.w3.org/2000/svg" xmlns:xlink="http://www.w3.org/1999/xlink" x="0px" y="0px"
	 width="107px" height="107px" viewBox="0 0 107 107" enable-background="new 0 0 107 107" xml:space="preserve">
<linearGradient id="SVGID_1_" gradientUnits="userSpaceOnUse" x1="40.8755" y1="46.0596" x2="40.8755" y2="105.6215">
	<stop  offset="0" style="stop-color:#CFCECE"/>
	<stop  offset="1" style="stop-color:#999898"/>
</linearGradient>
<polygon fill="url(#SVGID_1_)" points="81.951,20.801 -0.199,20.801 -0.199,75.225 12.354,75.225 9.423,87.853 29.479,75.225 
	81.951,75.225 "/>
<g opacity="0.75">
	<path fill="#FFFFFF" d="M42.605,47.882h1.666c0.755,0,1.289,0.144,1.599,0.433c0.312,0.288,0.465,0.811,0.465,1.565v3.998
		c-0.042,3.419-0.82,6.618-2.332,9.593l-2.665-0.732c0.445-2.398,0.667-4.887,0.667-7.462c-1.109,0-1.622-0.578-1.533-1.731v-3.665
		C40.518,48.549,41.23,47.882,42.605,47.882z M32.479,47.882h1.598c0.756,0,1.29,0.144,1.6,0.433
		c0.311,0.288,0.466,0.811,0.466,1.565v3.998c-0.044,3.508-0.801,6.705-2.267,9.593l-2.73-0.732
		c0.444-2.398,0.666-4.887,0.666-7.462c-1.109,0-1.621-0.578-1.532-1.731v-3.665C30.325,48.549,31.058,47.882,32.479,47.882z"/>
</g>
<g opacity="0.75">
	<path fill="#FFFFFF" d="M12.403,42.772h-1.666c-0.755,0-1.289-0.144-1.599-0.433c-0.312-0.289-0.465-0.81-0.465-1.566v-3.998
		c0.042-3.419,0.82-6.617,2.331-9.593l2.665,0.733c-0.444,2.398-0.666,4.886-0.666,7.461c1.11,0,1.621,0.577,1.533,1.732v3.664
		C14.49,42.106,13.779,42.772,12.403,42.772z M22.529,42.772H20.93c-0.755,0-1.288-0.144-1.599-0.433
		c-0.311-0.289-0.466-0.81-0.466-1.566v-3.998c0.044-3.508,0.799-6.706,2.265-9.593l2.732,0.733
		c-0.445,2.398-0.667,4.886-0.667,7.461c1.11,0,1.622,0.577,1.533,1.732v3.664C24.683,42.106,23.95,42.772,22.529,42.772z"/>
</g>
<linearGradient id="SVGID_2_" gradientUnits="userSpaceOnUse" x1="70.9492" y1="40.1567" x2="70.9492" y2="87.4739">
	<stop  offset="0" style="stop-color:#79BE82"/>
	<stop  offset="1" style="stop-color:#529864"/>
</linearGradient>
<polygon fill="url(#SVGID_2_)" points="106.801,30.854 35.098,30.854 35.098,78.367 81.655,78.367 97.83,90.659 94.696,78.367 
	106.801,78.367 "/>
<path opacity="0.9" fill="#FFFFFF" d="M57.527,47.61c-1.266-0.001-2.29,1.026-2.29,2.29l0.002,9.596c0,1.268,1.024,2.293,2.29,2.292
	c1.269,0,2.291-1.024,2.291-2.292v-9.597C59.82,48.635,58.792,47.609,57.527,47.61 M76.005,38.993l1.602-2.921
	c0.082-0.152,0.029-0.347-0.129-0.433c-0.153-0.083-0.347-0.026-0.43,0.128l-1.614,2.95c-1.36-0.604-2.881-0.943-4.491-0.943
	c-1.605,0-3.125,0.337-4.478,0.939l-1.619-2.944c-0.082-0.155-0.277-0.211-0.432-0.126c-0.153,0.083-0.211,0.278-0.122,0.43
	l1.597,2.919c-3.143,1.621-5.268,4.709-5.266,8.254l20.643-0.002C81.266,43.7,79.146,40.618,76.005,38.993 M66.248,43.505
	c-0.476-0.001-0.861-0.387-0.861-0.865c0-0.476,0.386-0.866,0.861-0.866c0.479-0.001,0.867,0.39,0.867,0.866
	C67.115,43.118,66.727,43.505,66.248,43.505 M75.648,43.504c-0.479,0-0.867-0.386-0.867-0.865c0.002-0.474,0.388-0.865,0.867-0.867
	c0.473,0.001,0.863,0.392,0.861,0.867C76.512,43.117,76.123,43.504,75.648,43.504 M60.708,48.043l0.004,14.869
	c-0.002,1.354,1.092,2.444,2.444,2.444h1.664l0.002,5.078c0,1.267,1.027,2.293,2.291,2.293c1.266,0,2.291-1.029,2.291-2.293v-5.078
	H72.5v5.078c0,1.264,1.027,2.293,2.291,2.291c1.264,0,2.291-1.027,2.291-2.293l-0.002-5.076l1.672-0.001
	c1.346,0,2.444-1.093,2.444-2.445l-0.002-14.871L60.708,48.043z M86.659,49.897c0-1.266-1.025-2.292-2.289-2.291
	c-1.266-0.001-2.293,1.026-2.291,2.292l0.002,9.595c0,1.269,1.025,2.291,2.291,2.291c1.264,0,2.289-1.022,2.289-2.291L86.659,49.897
	z"/>
</svg>
