<?xml version="1.0" encoding="utf-8"?>
<!-- Generator: Adobe Illustrator 16.0.0, SVG Export Plug-In . SVG Version: 6.00 Build 0)  -->
<!DOCTYPE svg PUBLIC "-//W3C//DTD SVG 1.1//EN" "http://www.w3.org/Graphics/SVG/1.1/DTD/svg11.dtd">
<svg version="1.1" id="Layer_1" xmlns="http://www.w3.org/2000/svg" xmlns:xlink="http://www.w3.org/1999/xlink" x="0px" y="0px"
	 width="107px" height="107px" viewBox="0 0 107 107" enable-background="new 0 0 107 107" xml:space="preserve">
<linearGradient id="SVGID_1_" gradientUnits="userSpaceOnUse" x1="36.7383" y1="3.0029" x2="60.2383" y2="68.7531">
	<stop  offset="0" style="stop-color:#CFCFCF"/>
	<stop  offset="1" style="stop-color:#9A9999"/>
</linearGradient>
<polygon fill="url(#SVGID_1_)" points="88.334,29.334 92.334,29.334 92.334,25.334 15.334,25.334 15.334,76.334 19.334,76.334 
	19.334,72.334 19.334,66.166 19.334,29.334 84.413,29.334 "/>
<linearGradient id="SVGID_2_" gradientUnits="userSpaceOnUse" x1="32.1797" y1="4.6309" x2="55.6802" y2="70.3824">
	<stop  offset="0" style="stop-color:#CFCFCF"/>
	<stop  offset="1" style="stop-color:#9A9999"/>
</linearGradient>
<polygon fill="url(#SVGID_2_)" points="80.334,21.334 84.334,21.334 84.334,17.334 7.334,17.334 7.334,68.334 11.334,68.334 
	11.334,64.334 11.334,58.166 11.334,21.334 76.413,21.334 "/>
<linearGradient id="SVGID_3_" gradientUnits="userSpaceOnUse" x1="42.6167" y1="58.3379" x2="79.1973" y2="58.3379">
	<stop  offset="0" style="stop-color:#77BE82"/>
	<stop  offset="1" style="stop-color:#549963"/>
</linearGradient>
<path fill="url(#SVGID_3_)" d="M64.689,49.479l0.741-6.042c0.037-0.313-0.184-0.607-0.51-0.646
	c-0.316-0.037-0.607,0.188-0.643,0.508l-0.746,6.099c-2.718-0.106-5.527,0.348-8.26,1.438c-2.725,1.085-5.076,2.687-6.965,4.622
	l-4.738-3.901c-0.245-0.208-0.614-0.173-0.819,0.077c-0.206,0.244-0.171,0.615,0.083,0.812l4.684,3.873
	c-4.238,4.877-5.755,11.556-3.355,17.57l35.035-13.964C76.801,53.908,71.119,50.112,64.689,49.479z M51.18,63.738
	c-0.807,0.316-1.723-0.076-2.048-0.886c-0.321-0.808,0.071-1.732,0.878-2.053c0.811-0.325,1.735,0.075,2.058,0.883
	C52.391,62.493,51.994,63.415,51.18,63.738z M67.135,57.378c-0.812,0.323-1.733-0.071-2.056-0.885
	c-0.318-0.803,0.071-1.731,0.886-2.058c0.803-0.316,1.73,0.083,2.048,0.89C68.34,56.136,67.942,57.056,67.135,57.378z"/>
<linearGradient id="SVGID_4_" gradientUnits="userSpaceOnUse" x1="23.334" y1="58.834" x2="100.334" y2="58.834">
	<stop  offset="0" style="stop-color:#77BE82"/>
	<stop  offset="1" style="stop-color:#549963"/>
</linearGradient>
<path fill="url(#SVGID_4_)" d="M46.748,84.334h1.748h40.293h11.545v-51h-77v51h14.398H46.748z M36.528,80.334h-9.194v-43h69v38.963
	l-6.185-15.516c-0.857-2.15-3.291-3.196-5.436-2.342c-2.149,0.855-3.197,3.292-2.338,5.442l6.492,16.281
	c0.024,0.062,0.062,0.111,0.089,0.171h-1.763l-7.579-19.01L44.848,75.187l2.053,5.147h-1.747l-0.557-1.397
	c-0.854-2.146-3.297-3.191-5.44-2.335C37.568,77.233,36.589,78.73,36.528,80.334z"/>
</svg>
