<?xml version="1.0" encoding="utf-8"?>
<!-- Generator: Adobe Illustrator 16.0.0, SVG Export Plug-In . SVG Version: 6.00 Build 0)  -->
<!DOCTYPE svg PUBLIC "-//W3C//DTD SVG 1.1//EN" "http://www.w3.org/Graphics/SVG/1.1/DTD/svg11.dtd">
<svg version="1.1" id="Layer_1" xmlns="http://www.w3.org/2000/svg" xmlns:xlink="http://www.w3.org/1999/xlink" x="0px" y="0px"
	 width="107px" height="107px" viewBox="0 0 107 107" enable-background="new 0 0 107 107" xml:space="preserve">
<linearGradient id="SVGID_1_" gradientUnits="userSpaceOnUse" x1="53.9907" y1="98.6152" x2="53.9907" y2="13.2282">
	<stop  offset="0" style="stop-color:#EBEBEB"/>
	<stop  offset="1" style="stop-color:#F5F5F5"/>
</linearGradient>
<rect x="4.991" y="-0.124" fill="url(#SVGID_1_)" width="98" height="107"/>
<linearGradient id="SVGID_2_" gradientUnits="userSpaceOnUse" x1="25.125" y1="26.499" x2="25.125" y2="67.5181">
	<stop  offset="0" style="stop-color:#CFCECE"/>
	<stop  offset="1" style="stop-color:#999898"/>
</linearGradient>
<rect x="18.625" y="19.5" fill="url(#SVGID_2_)" width="13" height="13"/>
<linearGradient id="SVGID_3_" gradientUnits="userSpaceOnUse" x1="23.9331" y1="13.2646" x2="23.9331" y2="36.2222">
	<stop  offset="0" style="stop-color:#79BE82"/>
	<stop  offset="1" style="stop-color:#529864"/>
</linearGradient>
<polygon fill="url(#SVGID_3_)" points="19.433,35.734 9.918,26.22 14.16,21.978 19.433,27.25 33.706,12.978 37.948,17.22 "/>
<linearGradient id="SVGID_4_" gradientUnits="userSpaceOnUse" x1="66.4658" y1="0.2646" x2="66.4658" y2="98.426">
	<stop  offset="0" style="stop-color:#777778"/>
	<stop  offset="1" style="stop-color:#454545"/>
</linearGradient>
<rect x="41.375" y="27.875" fill="url(#SVGID_4_)" width="50.181" height="4.25"/>
<linearGradient id="SVGID_5_" gradientUnits="userSpaceOnUse" x1="66.4658" y1="0.2646" x2="66.4658" y2="98.426">
	<stop  offset="0" style="stop-color:#777778"/>
	<stop  offset="1" style="stop-color:#454545"/>
</linearGradient>
<rect x="41.375" y="19.875" fill="url(#SVGID_5_)" width="50.181" height="4.25"/>
<linearGradient id="SVGID_6_" gradientUnits="userSpaceOnUse" x1="25.125" y1="54.499" x2="25.125" y2="95.5196">
	<stop  offset="0" style="stop-color:#CFCECE"/>
	<stop  offset="1" style="stop-color:#999898"/>
</linearGradient>
<rect x="18.625" y="47.5" fill="url(#SVGID_6_)" width="13" height="13"/>
<linearGradient id="SVGID_7_" gradientUnits="userSpaceOnUse" x1="66.4658" y1="0.2651" x2="66.4658" y2="98.4265">
	<stop  offset="0" style="stop-color:#777778"/>
	<stop  offset="1" style="stop-color:#454545"/>
</linearGradient>
<rect x="41.375" y="55.875" fill="url(#SVGID_7_)" width="50.181" height="4.25"/>
<linearGradient id="SVGID_8_" gradientUnits="userSpaceOnUse" x1="66.4658" y1="0.2646" x2="66.4658" y2="98.426">
	<stop  offset="0" style="stop-color:#777778"/>
	<stop  offset="1" style="stop-color:#454545"/>
</linearGradient>
<rect x="41.375" y="47.875" fill="url(#SVGID_8_)" width="50.181" height="4.25"/>
<linearGradient id="SVGID_9_" gradientUnits="userSpaceOnUse" x1="25.125" y1="82.499" x2="25.125" y2="123.5181">
	<stop  offset="0" style="stop-color:#CFCECE"/>
	<stop  offset="1" style="stop-color:#999898"/>
</linearGradient>
<rect x="18.625" y="75.5" fill="url(#SVGID_9_)" width="13" height="13"/>
<linearGradient id="SVGID_10_" gradientUnits="userSpaceOnUse" x1="66.4658" y1="0.2651" x2="66.4658" y2="98.4265">
	<stop  offset="0" style="stop-color:#777778"/>
	<stop  offset="1" style="stop-color:#454545"/>
</linearGradient>
<rect x="41.375" y="83.875" fill="url(#SVGID_10_)" width="50.181" height="4.25"/>
<linearGradient id="SVGID_11_" gradientUnits="userSpaceOnUse" x1="66.4658" y1="0.2651" x2="66.4658" y2="98.4265">
	<stop  offset="0" style="stop-color:#777778"/>
	<stop  offset="1" style="stop-color:#454545"/>
</linearGradient>
<rect x="41.375" y="75.875" fill="url(#SVGID_11_)" width="50.181" height="4.25"/>
</svg>
