<?xml version="1.0" encoding="utf-8"?>
<!-- Generator: Adobe Illustrator 16.0.0, SVG Export Plug-In . SVG Version: 6.00 Build 0)  -->
<!DOCTYPE svg PUBLIC "-//W3C//DTD SVG 1.1//EN" "http://www.w3.org/Graphics/SVG/1.1/DTD/svg11.dtd">
<svg version="1.1" id="Layer_1" xmlns="http://www.w3.org/2000/svg" xmlns:xlink="http://www.w3.org/1999/xlink" x="0px" y="0px"
	 width="107px" height="107px" viewBox="0 0 107 107" enable-background="new 0 0 107 107" xml:space="preserve">
<linearGradient id="SVGID_1_" gradientUnits="userSpaceOnUse" x1="53.9907" y1="98.6152" x2="53.9907" y2="13.2282">
	<stop  offset="0" style="stop-color:#EDEDED"/>
	<stop  offset="1" style="stop-color:#F7F7F7"/>
</linearGradient>
<rect x="4.991" y="-0.124" fill="url(#SVGID_1_)" width="98" height="107"/>
<linearGradient id="SVGID_2_" gradientUnits="userSpaceOnUse" x1="25.125" y1="26.499" x2="25.125" y2="67.5181">
	<stop  offset="0" style="stop-color:#CFCFCF"/>
	<stop  offset="1" style="stop-color:#9A9999"/>
</linearGradient>
<rect x="18.625" y="19.5" fill="url(#SVGID_2_)" width="13" height="13"/>
<linearGradient id="SVGID_3_" gradientUnits="userSpaceOnUse" x1="23.9331" y1="13.2646" x2="23.9331" y2="36.2222">
	<stop  offset="0" style="stop-color:#77BE82"/>
	<stop  offset="1" style="stop-color:#549963"/>
</linearGradient>
<polygon fill="url(#SVGID_3_)" points="19.433,35.734 9.918,26.22 14.16,21.978 19.433,27.25 33.706,12.978 37.948,17.22 "/>
<linearGradient id="SVGID_4_" gradientUnits="userSpaceOnUse" x1="66.4658" y1="0.2646" x2="66.4658" y2="98.426">
	<stop  offset="0" style="stop-color:#777778"/>
	<stop  offset="1" style="stop-color:#454545"/>
</linearGradient>
<rect x="41.375" y="27.875" fill="url(#SVGID_4_)" width="50.181" height="4.25"/>
<linearGradient id="SVGID_5_" gradientUnits="userSpaceOnUse" x1="66.4658" y1="0.2646" x2="66.4658" y2="98.426">
	<stop  offset="0" style="stop-color:#777778"/>
	<stop  offset="1" style="stop-color:#454545"/>
</linearGradient>
<rect x="41.375" y="19.875" fill="url(#SVGID_5_)" width="50.181" height="4.25"/>
<linearGradient id="SVGID_6_" gradientUnits="userSpaceOnUse" x1="25.125" y1="54.499" x2="25.125" y2="95.5196">
	<stop  offset="0" style="stop-color:#CFCFCF"/>
	<stop  offset="1" style="stop-color:#9A9999"/>
</linearGradient>
<rect x="18.625" y="47.5" fill="url(#SVGID_6_)" width="13" height="13"/>
<linearGradient id="SVGID_7_" gradientUnits="userSpaceOnUse" x1="66.4658" y1="0.2651" x2="66.4658" y2="98.4265">
	<stop  offset="0" style="stop-color:#777778"/>
	<stop  offset="1" style="stop-color:#454545"/>
</linearGradient>
<rect x="41.375" y="55.875" fill="url(#SVGID_7_)" width="50.181" height="4.25"/>
<linearGradient id="SVGID_8_" gradientUnits="userSpaceOnUse" x1="66.4658" y1="0.2646" x2="66.4658" y2="98.426">
	<stop  offset="0" style="stop-color:#777778"/>
	<stop  offset="1" style="stop-color:#454545"/>
</linearGradient>
<rect x="41.375" y="47.875" fill="url(#SVGID_8_)" width="50.181" height="4.25"/>
<g>
	<linearGradient id="SVGID_9_" gradientUnits="userSpaceOnUse" x1="55.0088" y1="64.5049" x2="55.0088" y2="133.4979">
		<stop  offset="0" style="stop-color:#77BE82"/>
		<stop  offset="1" style="stop-color:#549963"/>
	</linearGradient>
	<polygon fill="url(#SVGID_9_)" points="34.275,106.876 77.619,106.876 69.765,87.237 32.397,102.182 	"/>
	<linearGradient id="SVGID_10_" gradientUnits="userSpaceOnUse" x1="49.644" y1="64.5059" x2="49.644" y2="133.4977">
		<stop  offset="0" style="stop-color:#77BE82"/>
		<stop  offset="1" style="stop-color:#549963"/>
	</linearGradient>
	<path fill="url(#SVGID_10_)" d="M35.252,81.896c-4.554,5.25-6.176,12.43-3.588,18.894l37.649-15.055
		c-2.584-6.465-8.698-10.539-15.61-11.213l0.788-6.495c0.045-0.339-0.199-0.653-0.544-0.697c-0.345-0.037-0.656,0.204-0.693,0.546
		l-0.795,6.562c-2.921-0.112-5.943,0.378-8.876,1.554c-2.93,1.168-5.458,2.895-7.487,4.979l-5.095-4.188
		c-0.267-0.224-0.661-0.185-0.878,0.079c-0.222,0.269-0.185,0.665,0.084,0.879L35.252,81.896z M55.076,79.852
		c0.865-0.344,1.861,0.086,2.207,0.953c0.35,0.869-0.075,1.86-0.945,2.207c-0.869,0.35-1.859-0.073-2.209-0.948
		C53.787,81.199,54.205,80.203,55.076,79.852z M37.936,86.709c0.873-0.349,1.863,0.082,2.211,0.948
		c0.348,0.87-0.078,1.86-0.951,2.211c-0.867,0.345-1.855-0.078-2.206-0.95C36.647,88.052,37.064,87.057,37.936,86.709z"/>
	<linearGradient id="SVGID_11_" gradientUnits="userSpaceOnUse" x1="80.4082" y1="64.5068" x2="80.4082" y2="133.4978">
		<stop  offset="0" style="stop-color:#77BE82"/>
		<stop  offset="1" style="stop-color:#549963"/>
	</linearGradient>
	<path fill="url(#SVGID_11_)" d="M79.489,106.876h8.786c0.215-0.879,0.177-1.826-0.185-2.732l-7.002-17.502
		c-0.923-2.308-3.541-3.432-5.85-2.508c-2.309,0.921-3.43,3.543-2.507,5.852L79.489,106.876z"/>
	<linearGradient id="SVGID_12_" gradientUnits="userSpaceOnUse" x1="27.9849" y1="64.5146" x2="27.9849" y2="133.4927">
		<stop  offset="0" style="stop-color:#77BE82"/>
		<stop  offset="1" style="stop-color:#549963"/>
	</linearGradient>
	<path fill="url(#SVGID_12_)" d="M32.396,106.876l-0.264-0.659c-0.921-2.305-3.543-3.428-5.851-2.504
		c-1.42,0.566-2.385,1.778-2.708,3.163H32.396z"/>
</g>
</svg>
