<?xml version="1.0" encoding="utf-8"?>
<!-- Generator: Adobe Illustrator 16.0.0, SVG Export Plug-In . SVG Version: 6.00 Build 0)  -->
<!DOCTYPE svg PUBLIC "-//W3C//DTD SVG 1.1//EN" "http://www.w3.org/Graphics/SVG/1.1/DTD/svg11.dtd">
<svg version="1.1" id="Layer_1" xmlns="http://www.w3.org/2000/svg" xmlns:xlink="http://www.w3.org/1999/xlink" x="0px" y="0px"
	 width="564.793px" height="170.991px" viewBox="0 0 564.793 170.991" enable-background="new 0 0 564.793 170.991"
	 xml:space="preserve">
<g>
	<g>
		<circle fill="#4D834F" cx="90.28" cy="86.696" r="72"/>
		<g>
			<g>
				<path fill="#96CD86" d="M127.147,68.348c-2.356-4.718-8.08-6.638-12.804-4.305c1.655-2.668,1.943-6.101,0.445-9.121
					c-2.302-4.642-7.93-6.537-12.572-4.234c-0.356,0.179-0.7,0.377-1.025,0.593c0.013-1.642-0.343-3.311-1.123-4.883
					c-2.647-5.335-9.117-7.513-14.452-4.867c-0.526,0.26-1.056,0.516-1.482,0.89c-0.68,0.592,0.123,0.971,0.455,0.848
					c4.724-1.745,10.101,0.318,12.391,4.931c1.043,2.104,1.276,4.399,0.817,6.529c-0.227,1.057-0.693,2.036-1.179,3.005
					c-0.66,1.328,0.801,1.749,1.657,0.835c1.132-1.21,1.888-2.529,2.438-4.208c2.861-2.354,9.368-1.945,11.39,2.13
					c1.52,3.064,1.062,6.592-0.883,9.136c-0.782,1.024,1.017,0.529,1.716,0.179c4.296-1.878,9.354-0.091,11.473,4.15
					c1.834,3.672,0.883,8.009-2.054,10.604c-0.564,0.499-0.473,1.128,0.507,0.637C127.593,78.831,129.513,73.079,127.147,68.348z"/>
			</g>
			<g>
				<path fill="#FFFFFF" d="M86.935,150.921c0.016,0.008,0.032,0.008,0.048,0.008C86.967,150.929,86.95,150.929,86.935,150.921z"/>
				<path fill="#FFFFFF" d="M77.37,87.57c-0.628,0.879-1.412,1.676-2.372,2.351c5.467,7.599,12.659,16.235,17.184,16.235
					c3.673,0,7.237-5.025,10.033-10.498c-1.791,0.345-3.675,0.542-5.622,0.542C88.003,96.2,80.637,92.649,77.37,87.57z"/>
				<path fill="#96CD86" d="M107.431,148.692c7.239-2.074,13.598-5.213,18.812-8.668c1.037-0.691-6.232-9.172-20.479-9.172
					C102.106,130.851,99.012,140.274,107.431,148.692z"/>
				<path fill="#96CD86" d="M92.477,131.581c-7.19,0-13.158,14.009-2.989,19.419c4.436,0.195,10.186-0.557,12.431-1.02
					C88.671,136.732,96.257,131.581,92.477,131.581z"/>
				<path fill="#FFFFFF" d="M90.279,22.361c-35.522,0-64.325,28.799-64.325,64.326c0,18.15,7.522,34.545,19.615,46.244
					c9.014-4.302,23.439-7.248,39.968-7.725v-14.778l-15.312-18.44c-1.092,0.248-2.222,0.42-3.415,0.42
					c-6.684,0-12.085-4.139-12.085-9.247c0-0.411,0.077-0.805,0.148-1.2c-4.547-1.894-7.741-6.369-7.741-11.603
					c0-6.321,4.687-11.504,10.764-12.381c-0.202-0.905-0.329-1.827-0.329-2.79c0-6.941,5.622-12.566,12.562-12.566
					c3.096,0,5.891,1.162,8.073,3.018c1.72-5.053,6.446-8.707,12.076-8.707c6.078,0,11.136,4.24,12.454,9.92
					c1.43-0.58,2.982-0.915,4.617-0.915c6.814,0,12.328,5.517,12.328,12.329c0,0.848-0.08,1.667-0.252,2.468
					c0.332-0.027,0.629-0.099,0.957-0.099c6.674,0,12.095,5.419,12.095,12.094c0,6.674-5.421,12.09-12.095,12.09
					c-1.1,0-2.136-0.19-3.139-0.465c-0.944,3.514-3.707,6.577-7.617,8.712l-14.135,18.312v13.835
					c16.348,0.518,30.56,3.455,39.482,7.728c12.107-11.7,19.63-28.096,19.63-46.253C154.605,51.16,125.803,22.361,90.279,22.361z"/>
				<path fill="#96CD86" d="M71.342,148.174c0-9.526,12.452-18.374,8.259-18.374c-15.391,0-26.792,9.171-25.771,9.869
					C58.775,143.038,65.734,146.673,71.342,148.174z"/>
			</g>
		</g>
	</g>
</g>
<g>
	<path fill="#FFFFFF" d="M195.646,56.192h13.2v51.952c0,4.998,3.111,4.906,5.844,4.906h23.671v12.164h-28.338
		c-7.515,0-14.377-2.785-14.377-13.439V56.192z"/>
	<path fill="#FFFFFF" d="M244.785,58.547c0-1.413,0.757-2.355,2.267-2.355h8.814c1.413,0,2.119,1.038,2.119,2.355v8.679
		c0,1.413-0.796,2.164-2.119,2.164h-8.814c-1.322,0-2.267-0.847-2.267-2.164V58.547z M244.785,75.145h13.2v50.068h-13.2V75.145z"/>
	<path fill="#FFFFFF" d="M277.677,75.145l10.934,34.604l11.28-34.604h14.065l-18.168,50.068h-14.756l-17.477-50.068H277.677z"/>
	<path fill="#FFFFFF" d="M336.521,74.766c14.48,0,21.213,1.649,21.213,18.247c0,8.922-4.904,12.54-13.956,12.54h-15.932
		c0,9.039,3.412,9.577,10.558,9.577c7.64,0,11.317,0.04,18.388-0.996v8.912c-7.066,2.636-17.823,2.641-25.646,2.641
		c-12.73,0-16.5-7.372-16.5-25.743C314.646,78.424,320.641,74.766,336.521,74.766z M340.356,96.076c2.752,0,4.176-1.351,4.176-3.741
		c0-6.317-0.898-7.479-7.244-7.479c-6.975,0-9.549,0.401-9.441,11.22H340.356z"/>
	<path fill="#FFFFFF" d="M393.005,55.722c16.321,0,27.686,3.111,27.686,35.453c0,30.452-10.703,34.411-27.686,34.411
		c-16.966,0-27.756-3.014-27.756-34.411C365.249,58.833,377.172,55.722,393.005,55.722z M393.005,113.426
		c11.082,0,14.487-3.647,14.487-22.251c0-21.505-3.993-23.293-14.487-23.293c-10.201,0-14.555,1.324-14.555,23.293
		C378.45,110.011,381.224,113.426,393.005,113.426z"/>
	<path fill="#FFFFFF" d="M426.676,107.734c0-7.283,3.931-13.731,14.662-13.731c0,0,14.71,0.095,14.71,0c0,0,0.092-3.111,0-3.207
		c0-5.336-2.496-6.179-6.693-6.179c-4.355,0-16.914,0.785-21.031,1.083v-8.153c6.592-2.562,13.485-3.304,22.818-3.346
		c10.784-0.043,18.105,3.68,18.105,16.075v34.938h-10.419l-2.78-5.518c-0.55,1.091-7.581,6.239-15.227,6.083
		c-9.631-0.256-14.146-6.817-14.146-13.328V107.734z M444.555,115.168c5.521,0,11.493-3.875,11.493-3.875v-9.178l-12.115,0.936
		c-3.48,0.325-4.056,2.903-4.056,5.091v2.436C439.877,114.742,442.124,115.168,444.555,115.168z"/>
	<path fill="#FFFFFF" d="M477.079,56.192h13.199v35.736h2.732l14.216-16.783h16.714L505.158,96.97l18.782,28.243h-15.674
		l-15.256-23.2h-2.732v23.2h-13.199V56.192z"/>
</g>
</svg>
